<?xml version="1.0" encoding="UTF-8"?>
<svg id="Layer_1" data-name="Layer 1" xmlns="http://www.w3.org/2000/svg" width="597.01" height="108.43" version="1.1" viewBox="0 0 597.01 108.43">
  <defs>
    <style>
      .cls-1 {
        fill: #000;
        stroke-width: 0px;
      }
    </style>
  </defs>
  <path class="cls-1" d="M19.44,108.29H0L51.7,2.16h19.58L19.44,108.29Z"/>
  <path class="cls-1" d="M107.14,34.7h13.97v19.15h-13.97v26.78c0,2.98.72,4.97,2.16,5.98,1.44,1.01,3.36,1.51,5.76,1.51,1.15,0,2.23-.07,3.24-.22s1.85-.31,2.52-.5v18.14c-.48.19-1.63.58-3.46,1.15-1.83.58-4.46.86-7.92.86-7.49,0-13.35-2.04-17.57-6.12-4.23-4.08-6.34-9.72-6.34-16.92v-30.67h-12.67v-19.15h3.6c3.74,0,6.53-1.1,8.35-3.31,1.82-2.21,2.74-4.99,2.74-8.35v-9.22h19.58v20.88Z"/>
  <path class="cls-1" d="M131.61,86.54c0-3.17.55-6,1.66-8.5,1.1-2.5,2.61-4.63,4.54-6.41,1.92-1.78,4.15-3.22,6.7-4.32,2.54-1.1,5.3-1.89,8.28-2.38l16.85-2.59c1.92-.29,3.26-.86,4.03-1.73.77-.86,1.15-1.92,1.15-3.17,0-2.11-.89-3.94-2.66-5.47-1.78-1.53-4.39-2.3-7.85-2.3-3.84,0-6.79,1.08-8.86,3.24-2.07,2.16-3.19,4.59-3.38,7.27l-19.01-3.89c.19-2.59.96-5.28,2.3-8.06,1.34-2.78,3.29-5.33,5.83-7.63,2.54-2.3,5.74-4.22,9.58-5.76,3.84-1.53,8.4-2.3,13.68-2.3,5.76,0,10.66.74,14.69,2.23,4.03,1.49,7.32,3.51,9.86,6.05,2.54,2.54,4.37,5.5,5.47,8.86,1.1,3.36,1.66,6.86,1.66,10.51v34.99c0,2.79.12,5.23.36,7.34.24,2.11.41,3.36.5,3.74h-19.73c-.1-.29-.24-1.08-.43-2.38-.19-1.3-.29-3.19-.29-5.69-1.92,3.07-4.56,5.52-7.92,7.34-3.36,1.82-7.44,2.74-12.24,2.74-3.94,0-7.44-.6-10.51-1.8-3.07-1.2-5.67-2.81-7.78-4.82-2.11-2.02-3.72-4.32-4.82-6.91-1.11-2.59-1.66-5.33-1.66-8.21ZM161.71,92.45c1.63,0,3.24-.22,4.82-.65,1.58-.43,2.97-1.2,4.18-2.3,1.2-1.1,2.18-2.57,2.95-4.39.77-1.82,1.15-4.13,1.15-6.91v-3.17l-13.54,2.16c-2.3.38-4.23,1.18-5.76,2.38-1.54,1.2-2.3,3.05-2.3,5.54,0,1.92.65,3.62,1.94,5.11,1.3,1.49,3.48,2.23,6.55,2.23Z"/>
  <path class="cls-1" d="M258.62,64.8l28.51,41.47h-26.78l-16.85-25.2-7.06,7.63v17.57h-21.89V2.02h21.89v56.74l21.74-24.05h28.37l-27.94,30.1Z"/>
  <path class="cls-1" d="M310.17,82.66c.19,2.5,1.17,4.73,2.95,6.7,1.77,1.97,4.54,2.95,8.28,2.95,2.78,0,4.87-.62,6.26-1.87,1.39-1.25,2.09-2.69,2.09-4.32,0-1.34-.5-2.52-1.51-3.53-1.01-1.01-2.86-1.8-5.54-2.38l-8.21-1.87c-3.84-.86-7.11-2.02-9.79-3.46-2.69-1.44-4.9-3.12-6.62-5.04-1.73-1.92-2.98-4.03-3.74-6.34-.77-2.3-1.15-4.7-1.15-7.2,0-3.26.67-6.34,2.02-9.22,1.34-2.88,3.24-5.4,5.69-7.56,2.45-2.16,5.35-3.86,8.71-5.11,3.36-1.25,7.06-1.87,11.09-1.87,5.18,0,9.55.72,13.1,2.16,3.55,1.44,6.46,3.24,8.71,5.4,2.25,2.16,3.91,4.46,4.97,6.91,1.05,2.45,1.68,4.73,1.87,6.84l-18.14,3.31c-.29-2.4-1.22-4.46-2.81-6.19s-4.06-2.59-7.42-2.59c-2.11,0-3.94.55-5.47,1.66-1.54,1.1-2.3,2.62-2.3,4.54,0,1.54.53,2.74,1.58,3.6,1.06.86,2.4,1.44,4.03,1.73l9.5,1.87c7.49,1.54,13.03,4.34,16.63,8.42,3.6,4.08,5.4,8.76,5.4,14.04,0,3.07-.58,6.05-1.73,8.93-1.15,2.88-2.93,5.45-5.33,7.7-2.4,2.26-5.38,4.08-8.93,5.47-3.55,1.39-7.73,2.09-12.53,2.09-5.67,0-10.39-.79-14.18-2.38-3.79-1.58-6.84-3.53-9.14-5.83-2.3-2.3-4.01-4.75-5.11-7.34-1.1-2.59-1.71-4.9-1.8-6.91l18.58-3.31Z"/>
  <path class="cls-1" d="M362.73,12.82c0-1.73.33-3.38,1.01-4.97.67-1.58,1.58-2.95,2.74-4.1,1.15-1.15,2.5-2.06,4.03-2.74,1.54-.67,3.17-1.01,4.9-1.01,3.65,0,6.72,1.25,9.22,3.74,2.5,2.5,3.74,5.52,3.74,9.07s-1.25,6.58-3.74,9.07c-2.5,2.5-5.57,3.74-9.22,3.74-1.73,0-3.36-.33-4.9-1.01-1.54-.67-2.88-1.58-4.03-2.74-1.15-1.15-2.07-2.52-2.74-4.1-.67-1.58-1.01-3.24-1.01-4.97ZM364.6,106.27V34.7h21.89v71.57h-21.89Z"/>
  <path class="cls-1" d="M405.64,106.27V34.7h20.88v8.21c.86-1.53,2.06-2.95,3.6-4.25,1.53-1.3,3.24-2.4,5.11-3.31,1.87-.91,3.84-1.61,5.9-2.09,2.06-.48,4.05-.72,5.98-.72,5.18,0,9.55.99,13.1,2.95,3.55,1.97,6.24,4.73,8.06,8.28,2.78-4.03,5.95-6.91,9.5-8.64,3.55-1.73,7.78-2.59,12.67-2.59,3.36,0,6.65.5,9.86,1.51,3.21,1.01,6.05,2.62,8.5,4.82,2.45,2.21,4.41,5.04,5.9,8.5,1.49,3.46,2.23,7.63,2.23,12.53v46.37h-21.17v-41.47c0-3.36-.91-6.21-2.74-8.57-1.82-2.35-4.7-3.53-8.64-3.53s-6.91,1.25-8.93,3.74c-2.02,2.5-3.02,5.33-3.02,8.5v41.33h-21.6v-41.47c0-3.36-.91-6.21-2.74-8.57-1.82-2.35-4.75-3.53-8.78-3.53s-6.77,1.25-8.78,3.74c-2.02,2.5-3.02,5.38-3.02,8.64v41.18h-21.89Z"/>
  <path class="cls-1" d="M545.17,108.29h-19.44L577.43,2.16h19.58l-51.84,106.13Z"/>
</svg>